<svg width="316" height="104" viewBox="0 0 316 104" fill="none" xmlns="http://www.w3.org/2000/svg">
<path d="M118.554 40.8C118.554 42.624 118.33 44.08 117.882 45.168C117.434 46.224 116.81 46.96 116.01 47.376C115.242 47.792 114.218 48 112.938 48C111.05 48 109.674 47.504 108.81 46.512C107.978 45.488 107.546 43.696 107.514 41.136L107.418 23.424H103.338C101.322 23.424 99.8015 23.104 98.7775 22.464C97.7855 21.824 97.2895 20.688 97.2895 19.056C97.2895 18.064 97.4815 17.28 97.8655 16.704C98.2815 16.128 98.8895 15.728 99.6895 15.504C100.49 15.248 101.562 15.12 102.906 15.12H123.45C125.242 15.12 126.538 15.44 127.338 16.08C128.138 16.72 128.538 17.824 128.538 19.392C128.538 20.448 128.298 21.28 127.818 21.888C127.37 22.464 126.762 22.864 125.994 23.088C125.226 23.312 124.234 23.424 123.018 23.424H118.554V40.8ZM132.392 18.432C132.392 17.376 132.84 16.512 133.736 15.84C134.664 15.136 135.96 14.784 137.624 14.784C141.112 14.784 142.856 16 142.856 18.432C142.856 19.776 142.408 20.72 141.512 21.264C140.648 21.808 139.352 22.08 137.624 22.08C136.12 22.08 134.872 21.792 133.88 21.216C132.888 20.64 132.392 19.712 132.392 18.432ZM142.808 42.864C142.808 44.784 142.408 46.128 141.608 46.896C140.808 47.632 139.4 48 137.384 48C135.496 48 134.2 47.568 133.496 46.704C132.824 45.808 132.488 44.352 132.488 42.336V30.528C132.488 28.896 132.92 27.584 133.784 26.592C134.68 25.6 135.864 25.104 137.336 25.104C139.064 25.104 140.408 25.488 141.368 26.256C142.328 26.992 142.808 28.368 142.808 30.384V42.864ZM161.369 30.048C161.369 29.312 160.953 28.944 160.121 28.944C159.513 28.944 158.969 29.28 158.489 29.952C158.009 30.624 157.641 31.472 157.385 32.496C157.129 33.488 157.001 34.528 157.001 35.616C157.001 37.216 157.481 38.512 158.441 39.504C159.433 40.496 160.761 40.992 162.425 40.992C164.057 40.992 165.465 40.8 166.649 40.416C167.129 40.288 167.705 40.048 168.377 39.696C169.081 39.344 169.577 39.168 169.865 39.168C170.313 39.168 170.681 39.248 170.969 39.408C171.257 39.568 171.449 39.76 171.545 39.984C171.673 40.208 171.737 40.448 171.737 40.704C171.737 41.152 171.577 41.696 171.257 42.336C170.969 42.976 170.505 43.648 169.865 44.352C169.225 45.056 168.473 45.712 167.609 46.32C166.777 46.896 165.737 47.376 164.489 47.76C163.241 48.144 161.929 48.336 160.553 48.336C156.585 48.336 153.321 47.28 150.761 45.168C148.201 43.024 146.921 40.096 146.921 36.384C146.921 34.016 147.497 31.952 148.649 30.192C149.833 28.4 151.449 27.056 153.497 26.16C155.545 25.232 157.897 24.768 160.553 24.768C163.081 24.768 165.161 25.072 166.793 25.68C168.457 26.256 169.641 27.04 170.345 28.032C171.049 29.024 171.401 30.208 171.401 31.584C171.401 32.192 171.273 32.816 171.017 33.456C170.793 34.096 170.425 34.736 169.913 35.376C169.433 36.016 168.713 36.544 167.753 36.96C166.793 37.344 165.673 37.536 164.393 37.536C163.817 37.536 163.337 37.504 162.953 37.44C162.601 37.376 162.217 37.248 161.801 37.056C161.417 36.832 161.129 36.48 160.937 36C160.745 35.52 160.649 34.912 160.649 34.176C160.649 33.536 160.761 32.768 160.985 31.872C161.241 30.944 161.369 30.336 161.369 30.048ZM188.184 41.184H186.456C186.456 42.848 185.976 44.4 185.016 45.84C184.056 47.28 182.776 48 181.176 48C179.384 48 178.056 47.504 177.192 46.512C176.36 45.488 175.944 43.696 175.944 41.136V21.408C175.944 20.032 176.168 18.928 176.616 18.096C177.064 17.232 177.64 16.624 178.344 16.272C179.08 15.92 180.024 15.712 181.176 15.648C183.16 15.648 184.488 16.32 185.16 17.664C185.832 18.976 186.168 21.264 186.168 24.528C186.168 27.056 186.024 29.28 185.736 31.2C185.96 31.904 186.68 32.256 187.896 32.256C188.664 32.256 189.176 32.096 189.432 31.776C189.72 31.424 189.864 30.736 189.864 29.712C189.864 28.208 190.248 27.12 191.016 26.448C191.816 25.776 193.16 25.44 195.048 25.44C197.032 25.44 198.36 25.808 199.032 26.544C199.736 27.248 200.088 28.544 200.088 30.432C200.088 32.416 199.496 33.952 198.312 35.04C197.128 36.128 195.8 36.672 194.328 36.672C195.832 36.672 197.16 37.136 198.312 38.064C199.496 38.96 200.088 40.32 200.088 42.144C200.088 44.576 199.752 46.16 199.08 46.896C198.44 47.632 197.096 48 195.048 48C193.16 48 191.816 47.664 191.016 46.992C190.248 46.288 189.864 45.2 189.864 43.728C189.864 42.992 189.8 42.448 189.672 42.096C189.544 41.712 189.368 41.472 189.144 41.376C188.952 41.248 188.632 41.184 188.184 41.184ZM216.377 48.288C212.473 48.288 209.241 47.28 206.681 45.264C204.153 43.248 202.889 40.496 202.889 37.008C202.889 33.232 204.137 30.256 206.633 28.08C209.161 25.872 212.409 24.768 216.377 24.768C220.121 24.768 222.857 25.44 224.585 26.784C226.345 28.096 227.225 29.904 227.225 32.208C227.225 32.656 227.161 33.088 227.033 33.504C226.937 33.92 226.761 34.336 226.505 34.752C226.281 35.136 225.961 35.504 225.545 35.856C225.161 36.176 224.713 36.48 224.201 36.768C223.689 37.024 223.081 37.232 222.377 37.392C221.673 37.52 220.921 37.584 220.121 37.584L213.353 37.632C213.673 38.656 214.249 39.472 215.081 40.08C215.913 40.656 216.969 40.944 218.249 40.944C219.625 40.944 221.033 40.768 222.473 40.416C223.081 40.256 223.737 40 224.441 39.648C225.177 39.296 225.705 39.12 226.025 39.12C226.569 39.12 226.985 39.28 227.273 39.6C227.593 39.92 227.753 40.32 227.753 40.8C227.753 41.376 227.497 42.08 226.985 42.912C226.473 43.712 225.753 44.528 224.825 45.36C223.929 46.16 222.729 46.848 221.225 47.424C219.721 48 218.105 48.288 216.377 48.288ZM213.113 34.56C215.321 34.528 216.521 34.512 216.713 34.512C217.193 34.512 217.545 34.224 217.769 33.648C217.929 33.232 218.009 32.656 218.009 31.92C218.009 29.904 217.401 28.896 216.185 28.896C215.737 28.896 215.289 29.136 214.841 29.616C214.425 30.096 214.057 30.784 213.737 31.68C213.417 32.544 213.209 33.504 213.113 34.56ZM234.124 37.728V32.064C233.324 32.032 232.684 31.904 232.204 31.68C231.724 31.424 231.372 31.104 231.148 30.72C230.956 30.336 230.86 29.856 230.86 29.28C230.86 27.456 231.964 26.464 234.172 26.304V21.84C234.172 20.624 235.052 19.536 236.812 18.576C238.572 17.584 240.316 17.088 242.044 17.088C243.1 17.088 243.788 17.392 244.108 18C244.428 18.608 244.588 19.52 244.588 20.736L244.636 26.256H245.932C247.692 26.256 248.892 26.496 249.532 26.976C250.204 27.424 250.54 28.256 250.54 29.472C250.54 29.984 250.444 30.416 250.252 30.768C250.06 31.12 249.74 31.392 249.292 31.584C248.876 31.776 248.364 31.92 247.756 32.016C247.148 32.08 246.396 32.112 245.5 32.112H244.636V37.392C244.636 37.904 244.652 38.336 244.684 38.688C244.748 39.008 244.828 39.264 244.924 39.456C245.02 39.648 245.148 39.776 245.308 39.84C245.5 39.904 245.724 39.936 245.98 39.936C246.364 39.936 246.684 39.808 246.94 39.552C247.196 39.264 247.388 38.96 247.516 38.64C247.676 38.288 247.868 37.984 248.092 37.728C248.348 37.44 248.636 37.296 248.956 37.296C249.692 37.296 250.252 37.472 250.636 37.824C251.052 38.176 251.26 38.608 251.26 39.12C251.26 39.984 251.084 40.912 250.732 41.904C250.412 42.896 249.932 43.856 249.292 44.784C248.652 45.712 247.756 46.48 246.604 47.088C245.484 47.696 244.22 48 242.812 48C239.644 48 237.404 47.2 236.092 45.6C234.78 44 234.124 41.376 234.124 37.728ZM277.179 40.8C277.179 42.624 276.955 44.08 276.507 45.168C276.059 46.224 275.435 46.96 274.635 47.376C273.867 47.792 272.843 48 271.563 48C269.675 48 268.299 47.504 267.435 46.512C266.603 45.488 266.171 43.696 266.139 41.136L266.043 23.424H261.963C259.947 23.424 258.427 23.104 257.403 22.464C256.411 21.824 255.915 20.688 255.915 19.056C255.915 18.064 256.107 17.28 256.491 16.704C256.907 16.128 257.515 15.728 258.315 15.504C259.115 15.248 260.187 15.12 261.531 15.12H282.075C283.867 15.12 285.163 15.44 285.963 16.08C286.763 16.72 287.163 17.824 287.163 19.392C287.163 20.448 286.923 21.28 286.443 21.888C285.995 22.464 285.387 22.864 284.619 23.088C283.851 23.312 282.859 23.424 281.643 23.424H277.179V40.8ZM299.446 36.624C299.446 34.96 299.238 33.504 298.822 32.256C298.406 30.976 297.798 30.336 296.998 30.336C296.454 30.336 295.974 30.656 295.558 31.296C295.142 31.936 294.838 32.72 294.646 33.648C294.454 34.576 294.358 35.568 294.358 36.624C294.358 38.256 294.582 39.696 295.03 40.944C295.478 42.16 296.118 42.768 296.95 42.768C297.782 42.768 298.406 42.16 298.822 40.944C299.238 39.728 299.446 38.288 299.446 36.624ZM296.95 48.336C294.454 48.336 292.198 47.888 290.182 46.992C288.198 46.096 286.598 44.752 285.382 42.96C284.198 41.168 283.606 39.072 283.606 36.672C283.606 33.024 284.854 30.128 287.35 27.984C289.846 25.84 293.046 24.768 296.95 24.768C300.854 24.768 304.038 25.84 306.502 27.984C308.966 30.128 310.198 33.024 310.198 36.672C310.198 40.288 308.934 43.136 306.406 45.216C303.91 47.296 300.758 48.336 296.95 48.336ZM104.704 64.144C104.704 63.472 104.416 62.896 103.84 62.416C103.296 61.936 102.64 61.696 101.872 61.696C100.336 61.696 99.072 62.576 98.08 64.336C97.088 66.064 96.592 68.032 96.592 70.24C96.592 71.936 96.912 73.472 97.552 74.848C98.192 76.192 99.12 77.264 100.336 78.064C101.552 78.864 102.96 79.264 104.56 79.264C105.744 79.264 106.88 79.04 107.968 78.592C109.056 78.112 109.936 77.6 110.608 77.056C111.28 76.48 111.968 75.968 112.672 75.52C113.408 75.04 114.048 74.8 114.592 74.8C115.296 74.8 115.904 75.088 116.416 75.664C116.928 76.208 117.184 76.784 117.184 77.392C117.184 78.064 116.976 78.848 116.56 79.744C116.176 80.64 115.552 81.6 114.688 82.624C113.824 83.616 112.816 84.544 111.664 85.408C110.512 86.24 109.072 86.944 107.344 87.52C105.648 88.064 103.856 88.336 101.968 88.336C99.472 88.336 97.152 87.968 95.008 87.232C92.896 86.464 91.056 85.392 89.488 84.016C87.92 82.608 86.688 80.848 85.792 78.736C84.896 76.624 84.448 74.256 84.448 71.632C84.448 66.448 86 62.352 89.104 59.344C92.208 56.336 96.272 54.832 101.296 54.832C103.856 54.832 106.224 55.264 108.4 56.128C110.576 56.992 112.304 58.192 113.584 59.728C114.864 61.264 115.504 62.944 115.504 64.768C115.504 66.88 114.8 68.8 113.392 70.528C111.984 72.224 110.16 73.072 107.92 73.072C106.64 73.072 105.488 72.72 104.464 72.016C103.44 71.312 102.928 70.304 102.928 68.992C102.928 68.384 103.216 67.536 103.792 66.448C104.4 65.36 104.704 64.592 104.704 64.144ZM131.189 77.872C131.189 79.696 131.893 80.608 133.301 80.608C133.781 80.608 134.197 80.464 134.549 80.176C134.933 79.856 135.221 79.424 135.413 78.88C135.605 78.336 135.701 77.712 135.701 77.008V70.576C135.701 69.488 135.893 68.544 136.277 67.744C136.661 66.912 137.221 66.272 137.957 65.824C138.693 65.376 139.557 65.152 140.549 65.152C142.277 65.152 143.621 65.536 144.581 66.304C145.541 67.04 146.021 68.416 146.021 70.432V82.912C146.021 84.864 145.621 86.208 144.821 86.944C144.021 87.68 142.613 88.048 140.597 88.048C139.733 88.048 138.997 87.968 138.389 87.808C137.781 87.616 137.285 87.344 136.901 86.992C136.549 86.64 136.277 86.176 136.085 85.6C134.773 86.464 133.381 87.072 131.909 87.424C130.469 87.776 128.853 87.952 127.061 87.952C124.789 87.952 123.157 87.072 122.165 85.312C121.173 83.52 120.677 80.592 120.677 76.528C120.677 74.512 120.725 72.88 120.821 71.632C120.917 70.352 121.061 69.264 121.253 68.368C121.477 67.44 121.797 66.752 122.213 66.304C122.661 65.856 123.173 65.536 123.749 65.344C124.357 65.152 125.141 65.056 126.101 65.056C127.893 65.056 129.173 65.392 129.941 66.064C130.741 66.736 131.141 67.744 131.141 69.088L131.189 77.872ZM161.237 80.752C161.237 83.344 160.805 85.2 159.941 86.32C159.077 87.44 157.749 88 155.957 88C154.165 88 152.853 87.504 152.021 86.512C151.189 85.488 150.773 83.696 150.773 81.136L150.677 60.88C150.677 60.048 150.757 59.312 150.917 58.672C151.109 58.032 151.349 57.488 151.637 57.04C151.957 56.592 152.341 56.224 152.789 55.936C153.237 55.648 153.717 55.44 154.229 55.312C154.773 55.184 155.349 55.12 155.957 55.12C157.717 55.12 159.029 55.472 159.893 56.176C160.789 56.88 161.237 58.304 161.237 60.448V80.752ZM168.03 77.728V72.064C167.23 72.032 166.59 71.904 166.11 71.68C165.63 71.424 165.278 71.104 165.054 70.72C164.862 70.336 164.766 69.856 164.766 69.28C164.766 67.456 165.87 66.464 168.078 66.304V61.84C168.078 60.624 168.958 59.536 170.718 58.576C172.478 57.584 174.222 57.088 175.95 57.088C177.006 57.088 177.694 57.392 178.014 58C178.334 58.608 178.494 59.52 178.494 60.736L178.542 66.256H179.838C181.598 66.256 182.798 66.496 183.438 66.976C184.11 67.424 184.446 68.256 184.446 69.472C184.446 69.984 184.35 70.416 184.158 70.768C183.966 71.12 183.646 71.392 183.198 71.584C182.782 71.776 182.27 71.92 181.662 72.016C181.054 72.08 180.302 72.112 179.406 72.112H178.542V77.392C178.542 77.904 178.558 78.336 178.59 78.688C178.654 79.008 178.734 79.264 178.83 79.456C178.926 79.648 179.054 79.776 179.214 79.84C179.406 79.904 179.63 79.936 179.886 79.936C180.27 79.936 180.59 79.808 180.846 79.552C181.102 79.264 181.294 78.96 181.422 78.64C181.582 78.288 181.774 77.984 181.998 77.728C182.254 77.44 182.542 77.296 182.862 77.296C183.598 77.296 184.158 77.472 184.542 77.824C184.958 78.176 185.166 78.608 185.166 79.12C185.166 79.984 184.99 80.912 184.638 81.904C184.318 82.896 183.838 83.856 183.198 84.784C182.558 85.712 181.662 86.48 180.51 87.088C179.39 87.696 178.126 88 176.718 88C173.55 88 171.31 87.2 169.998 85.6C168.686 84 168.03 81.376 168.03 77.728ZM200.189 77.872C200.189 79.696 200.893 80.608 202.301 80.608C202.781 80.608 203.197 80.464 203.549 80.176C203.933 79.856 204.221 79.424 204.413 78.88C204.605 78.336 204.701 77.712 204.701 77.008V70.576C204.701 69.488 204.893 68.544 205.277 67.744C205.661 66.912 206.221 66.272 206.957 65.824C207.693 65.376 208.557 65.152 209.549 65.152C211.277 65.152 212.621 65.536 213.581 66.304C214.541 67.04 215.021 68.416 215.021 70.432V82.912C215.021 84.864 214.621 86.208 213.821 86.944C213.021 87.68 211.613 88.048 209.597 88.048C208.733 88.048 207.997 87.968 207.389 87.808C206.781 87.616 206.285 87.344 205.901 86.992C205.549 86.64 205.277 86.176 205.085 85.6C203.773 86.464 202.381 87.072 200.909 87.424C199.469 87.776 197.853 87.952 196.061 87.952C193.789 87.952 192.157 87.072 191.165 85.312C190.173 83.52 189.677 80.592 189.677 76.528C189.677 74.512 189.725 72.88 189.821 71.632C189.917 70.352 190.061 69.264 190.253 68.368C190.477 67.44 190.797 66.752 191.213 66.304C191.661 65.856 192.173 65.536 192.749 65.344C193.357 65.152 194.141 65.056 195.101 65.056C196.893 65.056 198.173 65.392 198.941 66.064C199.741 66.736 200.141 67.744 200.141 69.088L200.189 77.872ZM229.997 82.864C229.997 84.784 229.597 86.128 228.797 86.896C227.997 87.632 226.573 88 224.525 88C222.637 88 221.357 87.568 220.685 86.704C220.013 85.808 219.677 84.352 219.677 82.336V70.528C219.677 69.44 219.869 68.496 220.253 67.696C220.637 66.864 221.197 66.224 221.933 65.776C222.669 65.328 223.533 65.104 224.525 65.104C226.957 65.104 228.557 65.808 229.325 67.216C231.181 65.808 232.973 65.104 234.701 65.104C238.061 65.104 239.741 66.704 239.741 69.904C239.741 71.184 239.373 72.224 238.637 73.024C237.901 73.824 236.941 74.224 235.757 74.224C235.053 74.224 234.477 74.08 234.029 73.792C233.613 73.504 233.213 73.216 232.829 72.928C232.477 72.64 232.061 72.496 231.581 72.496C230.877 72.496 230.349 72.736 229.997 73.216V82.864ZM254.58 88.288C250.676 88.288 247.444 87.28 244.884 85.264C242.356 83.248 241.092 80.496 241.092 77.008C241.092 73.232 242.34 70.256 244.836 68.08C247.364 65.872 250.612 64.768 254.58 64.768C258.324 64.768 261.06 65.44 262.788 66.784C264.548 68.096 265.428 69.904 265.428 72.208C265.428 72.656 265.364 73.088 265.236 73.504C265.14 73.92 264.964 74.336 264.708 74.752C264.484 75.136 264.164 75.504 263.748 75.856C263.364 76.176 262.916 76.48 262.404 76.768C261.892 77.024 261.284 77.232 260.58 77.392C259.876 77.52 259.124 77.584 258.324 77.584L251.556 77.632C251.876 78.656 252.452 79.472 253.284 80.08C254.116 80.656 255.172 80.944 256.452 80.944C257.828 80.944 259.236 80.768 260.676 80.416C261.284 80.256 261.94 80 262.644 79.648C263.38 79.296 263.908 79.12 264.228 79.12C264.772 79.12 265.188 79.28 265.476 79.6C265.796 79.92 265.956 80.32 265.956 80.8C265.956 81.376 265.7 82.08 265.188 82.912C264.676 83.712 263.956 84.528 263.028 85.36C262.132 86.16 260.932 86.848 259.428 87.424C257.924 88 256.308 88.288 254.58 88.288ZM251.316 74.56C253.524 74.528 254.724 74.512 254.916 74.512C255.396 74.512 255.748 74.224 255.972 73.648C256.132 73.232 256.212 72.656 256.212 71.92C256.212 69.904 255.604 68.896 254.388 68.896C253.94 68.896 253.492 69.136 253.044 69.616C252.628 70.096 252.26 70.784 251.94 71.68C251.62 72.544 251.412 73.504 251.316 74.56Z" fill="#353333"/>
<g clip-path="url(#clip0_2_42)">
<path d="M66.5772 22.1446L61.1799 19.984C60.4581 19.6953 59.6389 20.0461 59.3499 20.7677C59.0608 21.4895 59.4119 22.3087 60.1336 22.5977L65.5309 24.7583C66.2457 25.0444 67.0748 24.6886 67.3608 23.9748C67.6496 23.2527 67.2988 22.4335 66.5772 22.1446Z" fill="url(#paint0_linear_2_42)"/>
<path d="M77.3719 26.4654L71.9746 24.305C71.2528 24.016 70.4338 24.3669 70.1446 25.0886C69.8554 25.8104 70.2062 26.6296 70.928 26.9186C70.928 26.9186 76.3146 29.0748 76.3253 29.0791C77.0128 29.3543 77.8649 29.0209 78.1553 28.2955C78.4444 27.5739 78.0936 26.7545 77.3719 26.4654Z" fill="url(#paint1_linear_2_42)"/>
<path d="M32.9551 35.0703L27.1416 35.0371C26.3646 35.0328 25.7306 35.6591 25.7259 36.4366C25.7215 37.2141 26.3481 37.8478 27.1255 37.8524L32.9389 37.8856C33.0501 37.8861 33.158 37.8741 33.2623 37.8503C33.8847 37.7079 34.3508 37.1522 34.3548 36.486C34.359 35.7084 33.7324 35.0746 32.9551 35.0703Z" fill="url(#paint2_linear_2_42)"/>
<path d="M44.5824 35.1367L38.7689 35.1035C37.9916 35.0992 37.3579 35.7255 37.3532 36.5031C37.3488 37.2805 37.9754 37.9142 38.7527 37.9186L44.5662 37.9519C44.6773 37.9524 44.7853 37.9403 44.8895 37.9165C45.512 37.7742 45.978 37.2186 45.9821 36.5524C45.9863 35.7748 45.3597 35.1411 44.5824 35.1367Z" fill="url(#paint3_linear_2_42)"/>
<path d="M48.2209 41.1461L35.0486 41.0709C34.2715 41.0666 33.6375 41.6929 33.6328 42.4704C33.6285 43.2479 34.2551 43.8816 35.0324 43.886L46.7971 43.9532L46.5665 84.4032L24.5956 84.2779L24.826 43.8278L29.2986 43.8532C30.076 43.8576 30.7096 43.231 30.7141 42.4537C30.7187 41.6764 30.0919 41.0425 29.3144 41.0382L23.4345 41.0047C22.6589 41.0001 22.0236 41.6267 22.0189 42.4043L21.7723 85.6694C21.7679 86.4469 22.3945 87.0806 23.1718 87.085L47.9577 87.2264C48.0668 87.2271 48.1749 87.2148 48.2796 87.1909C48.533 87.1329 48.7675 87.0055 48.9554 86.8198C49.2209 86.5572 49.3712 86.2001 49.3736 85.8268L49.6204 42.5616C49.6246 41.7842 48.998 41.1505 48.2209 41.1461Z" fill="url(#paint4_linear_2_42)"/>
<path d="M44.7212 58.2368C44.3656 57.7412 43.7321 57.5313 43.1504 57.7166L38.1149 59.3209L35.0331 55.0278C34.6776 54.5322 34.0426 54.3225 33.4623 54.5076C32.8814 54.6926 32.4854 55.231 32.4819 55.8408L32.4518 61.1255L27.4163 62.73C26.8354 62.9151 26.4395 63.4534 26.436 64.0631C26.4325 64.6729 26.8221 65.2156 27.401 65.4073L32.4176 67.0689L32.3875 72.3537C32.3841 72.9635 32.7737 73.5063 33.3525 73.6979C33.6027 73.7808 33.8638 73.79 34.1085 73.734C34.4304 73.6605 34.7241 73.4745 34.9291 73.1956L38.0597 68.938L43.0765 70.5997C43.655 70.7914 44.2917 70.5888 44.6532 70.0974C45.0144 69.6061 45.018 68.9381 44.6626 68.4429L41.5808 64.1496L44.7115 59.8919C45.0733 59.4001 45.0768 58.7321 44.7212 58.2368ZM38.6979 64.9601L39.8499 66.5649C39.8499 66.5649 37.9748 65.9439 37.9744 65.9437C36.6769 65.5139 35.8546 67.1847 35.2277 68.0374L35.239 66.0623C35.2424 65.4525 34.8528 64.9097 34.274 64.7181L32.3988 64.0967C32.3988 64.0967 34.2784 63.498 34.281 63.4972C35.5877 63.0808 35.2663 61.2435 35.2724 60.1888C35.2724 60.1888 36.4216 61.7897 36.4242 61.7933C37.2259 62.91 38.8692 62.0351 39.8772 61.714C39.242 62.5784 37.8757 63.8148 38.6979 64.9601Z" fill="url(#paint5_linear_2_42)"/>
<path d="M88.8133 21.1035C87.4587 20.5614 86.7052 19.0874 87.0601 17.6749C87.2318 16.9918 86.8719 16.2869 86.2181 16.0251L78.0888 12.771C77.4347 12.5095 76.6883 12.7711 76.3407 13.384C75.9377 14.0959 75.2456 14.6096 74.4426 14.7932C73.8622 14.9259 73.2619 14.8786 72.7061 14.6558C71.3515 14.1136 70.5979 12.6396 70.9528 11.2271C71.1246 10.5441 70.7647 9.83917 70.1109 9.57735L61.9821 6.32319C61.328 6.0616 60.5812 6.32332 60.2341 6.93613C59.8309 7.64806 59.1386 8.16145 58.3359 8.34534C57.7555 8.47804 57.1552 8.43074 56.5992 8.20795C55.878 7.91916 55.0584 8.26985 54.7693 8.99148L49.4559 22.2647C49.3092 22.2119 49.1521 22.182 48.9886 22.181L40.2324 22.1313C39.5282 22.1271 38.9292 22.6446 38.8306 23.342C38.629 24.7686 37.3518 25.8651 35.9144 25.8568C34.4557 25.8484 33.2144 24.7531 33.0272 23.3088C32.9366 22.6102 32.3436 22.0862 31.6392 22.082L22.8831 22.0321C22.1791 22.0279 21.5801 22.5454 21.4813 23.2429C21.2796 24.6679 20.0013 25.7661 18.5652 25.7579C17.7887 25.7533 17.1543 26.38 17.1496 27.1574C17.1496 27.1574 17.0969 36.3831 17.0969 36.3914L16.7883 90.5318C16.7839 91.3092 17.4105 91.9429 18.1878 91.9474C19.6468 91.9557 20.888 93.0512 21.0752 94.4954C21.1657 95.1939 21.7588 95.718 22.4631 95.7221L31.2189 95.7721C31.9245 95.7759 32.5222 95.2589 32.6208 94.5615C33.0852 91.2752 37.9992 91.3147 38.4245 94.5945C38.515 95.293 39.1081 95.8171 39.8125 95.8212L48.5683 95.8712C49.2639 95.8746 49.8727 95.35 49.9701 94.6602C50.1385 93.4684 51.0398 92.4872 52.2132 92.2189C52.8184 92.0806 53.3974 92.2201 53.8842 91.7391C54.1495 91.4766 54.3 91.1195 54.3023 90.746L54.3485 82.6436C54.3485 82.6436 58.8302 84.4376 58.8318 84.4383C59.4637 84.6913 60.2336 84.4362 60.5799 83.8253C60.9829 83.1134 61.675 82.6001 62.4778 82.4165C63.0583 82.2838 63.6588 82.3314 64.2147 82.5538C64.9364 82.8425 65.7555 82.4916 66.0445 81.77L89.5967 22.9336C89.8858 22.212 89.5349 21.3924 88.8133 21.1035ZM51.5973 71.2749C51.5973 71.2749 51.5443 80.5607 51.5443 80.5614L51.4933 89.4967C49.647 89.9515 48.1556 91.3085 47.495 93.05L40.9181 93.0125C40.1113 90.8029 37.9861 89.2456 35.5529 89.2318C33.1761 89.2183 30.9885 90.7301 30.1458 92.9512L23.5691 92.9136C22.9225 91.1434 21.4298 89.7915 19.6103 89.3171L19.9042 37.8113L21.3119 37.8193C21.4229 37.8199 21.5308 37.8078 21.6349 37.784C22.2574 37.6417 22.7234 37.086 22.7275 36.4198C22.7318 35.6423 22.1052 35.0086 21.3278 35.0043L19.9204 34.9962L19.958 28.4074C21.8044 27.9525 23.2956 26.5955 23.9563 24.854L30.5332 24.8916C31.34 27.1011 33.4651 28.6585 35.8983 28.6726C38.2747 28.686 40.4631 27.174 41.3054 24.9533L47.8823 24.9907C47.9011 24.9911 48.022 25.3376 48.0388 25.3751C48.2128 25.7606 48.437 26.1378 48.696 26.4788C49.4732 27.5038 50.5942 28.2644 51.841 28.5879L51.8035 35.1783L50.3958 35.1703C49.62 35.1658 48.9849 35.7923 48.9802 36.5699C48.9758 37.3473 49.6024 37.981 50.3799 37.9854L51.7873 37.9935L51.7314 47.7924C51.7314 47.7924 51.7254 48.8628 51.7253 48.8635L51.6842 56.058C51.684 56.0575 51.5971 71.2744 51.5973 71.2749ZM84.0763 29.1497L82.7693 28.6263C82.0479 28.3373 81.2284 28.6884 80.9395 29.4099C80.6505 30.1317 81.0012 30.9509 81.7232 31.2399L83.0299 31.7631L63.8887 79.5781C63.2134 79.4869 62.5247 79.5174 61.8496 79.6717C60.6912 79.9366 59.6501 80.5538 58.8656 81.4195L54.3652 79.618L54.401 73.3571L61.4303 76.1709C62.1442 76.4563 62.9744 76.1012 63.2602 75.3872L75.0786 45.8643C75.3676 45.1425 75.0168 44.3232 74.2952 44.0342C73.5734 43.7452 72.7542 44.0961 72.4651 44.8178L61.1696 73.0342L54.418 70.3314L54.4865 58.3178L58.9202 55.5275L62.9794 58.9114C63.3237 59.1984 63.7748 59.2985 64.1948 59.2024C64.3464 59.1678 64.4939 59.1078 64.6307 59.0215C65.1468 58.6968 65.3952 58.0766 65.2456 57.4852L63.9505 52.3617L68.4233 49.5469C68.9394 49.2222 69.1878 48.602 69.0383 48.0108C68.8889 47.4196 68.3758 46.9918 67.7672 46.9512L62.494 46.5993L61.1988 41.4755C61.0494 40.8842 60.5363 40.4565 59.9277 40.4159C59.3191 40.3754 58.754 40.7313 58.5272 41.2974L56.5636 46.2035L54.5559 46.0696L54.6465 30.2079L55.8045 27.315L76.2021 35.4804L74.6031 39.4756C74.3141 40.1974 74.6648 41.0167 75.3865 41.3057C76.1083 41.5947 76.9273 41.2436 77.2165 40.5221C77.2165 40.5221 79.3316 35.2383 79.3388 35.2206C79.6231 34.5104 79.2624 33.6737 78.5554 33.3905C78.5554 33.3905 55.5854 24.1955 55.5441 24.1788C54.8297 23.8928 53.9995 24.2492 53.714 24.9624L53.3152 25.9589C53.2977 25.9582 53.2806 25.956 53.2631 25.9559C52.5502 25.9513 51.8564 25.6812 51.3265 25.2049C51.3226 25.2015 51.3191 25.1976 51.3151 25.194L53.429 19.9136C53.429 19.9136 54.7354 20.4364 54.7355 20.4368C55.4297 20.7146 56.2764 20.375 56.5655 19.653C56.8546 18.9314 56.5037 18.112 55.7821 17.823L54.4754 17.2998L56.9239 11.1833C57.5993 11.2745 58.2881 11.244 58.9632 11.0896C60.1216 10.8248 61.1625 10.2076 61.947 9.34173L68.0521 11.7857C67.9937 14.1373 69.4002 16.3649 71.6594 17.2693C73.8682 18.1537 76.4571 17.5515 78.0542 15.7895L84.1593 18.2335C84.1126 20.1174 85.0063 21.9223 86.5253 23.0303L84.0763 29.1497ZM61.4551 53.9754C61.4551 53.9754 59.9383 52.7112 59.9376 52.7103C59.4752 52.325 58.7954 52.2796 58.2865 52.6003L56.6147 53.6522C57.0153 52.6514 58.0299 51.1202 56.9433 50.2141L55.426 48.9489C55.426 48.9489 57.3952 49.0804 57.3973 49.0804C58.7715 49.172 59.1361 47.3532 59.5317 46.3653C59.5317 46.3653 60.0153 48.2786 60.0158 48.2804C60.3524 49.6121 62.2028 49.401 63.2578 49.4715L61.5858 50.5235C61.0697 50.8482 60.8214 51.4686 60.9709 52.06L61.4551 53.9754Z" fill="url(#paint6_linear_2_42)"/>
</g>
<defs>
<linearGradient id="paint0_linear_2_42" x1="62.6727" y1="19.3859" x2="64.0371" y2="25.3529" gradientUnits="userSpaceOnUse">
<stop stop-color="#89BC47"/>
<stop offset="1" stop-color="#197218"/>
</linearGradient>
<linearGradient id="paint1_linear_2_42" x1="73.4673" y1="23.7067" x2="74.8306" y2="29.6692" gradientUnits="userSpaceOnUse">
<stop stop-color="#89BC47"/>
<stop offset="1" stop-color="#197218"/>
</linearGradient>
<linearGradient id="paint2_linear_2_42" x1="29.5785" y1="34.4414" x2="30.5022" y2="38.4813" gradientUnits="userSpaceOnUse">
<stop stop-color="#89BC47"/>
<stop offset="1" stop-color="#197218"/>
</linearGradient>
<linearGradient id="paint3_linear_2_42" x1="41.2058" y1="34.5079" x2="42.1294" y2="38.5476" gradientUnits="userSpaceOnUse">
<stop stop-color="#89BC47"/>
<stop offset="1" stop-color="#197218"/>
</linearGradient>
<linearGradient id="paint4_linear_2_42" x1="30.0571" y1="39.4521" x2="41.3354" y2="88.7786" gradientUnits="userSpaceOnUse">
<stop stop-color="#89BC47"/>
<stop offset="1" stop-color="#197218"/>
</linearGradient>
<linearGradient id="paint5_linear_2_42" x1="34.0645" y1="54.3648" x2="38.2754" y2="72.7813" gradientUnits="userSpaceOnUse">
<stop stop-color="#89BC47"/>
<stop offset="1" stop-color="#197218"/>
</linearGradient>
<linearGradient id="paint6_linear_2_42" x1="42.7239" y1="10.4697" x2="61.5789" y2="92.9334" gradientUnits="userSpaceOnUse">
<stop stop-color="#89BC47"/>
<stop offset="1" stop-color="#197218"/>
</linearGradient>
<clipPath id="clip0_2_42">
<rect width="86.3321" height="86.3321" fill="white" transform="translate(0.449799 19.2429) rotate(-12.8791)"/>
</clipPath>
</defs>
</svg>
